<svg width="25" height="24" viewBox="0 0 25 24" fill="none" xmlns="http://www.w3.org/2000/svg">
<path fill-rule="evenodd" clip-rule="evenodd" d="M7.27782 0.072C8.55746 0.0130909 8.96546 0 12.2251 0C15.4847 0 15.8927 0.0141818 17.1713 0.072C18.4498 0.129818 19.3226 0.333818 20.0862 0.629455C20.8858 0.931636 21.6113 1.404 22.2113 2.01491C22.8222 2.61382 23.2935 3.33818 23.5946 4.13891C23.8913 4.90255 24.0942 5.77527 24.1531 7.05164C24.212 8.33345 24.2251 8.74145 24.2251 12C24.2251 15.2596 24.2109 15.6676 24.1531 16.9473C24.0953 18.2236 23.8913 19.0964 23.5946 19.86C23.2935 20.6608 22.8214 21.3864 22.2113 21.9862C21.6113 22.5971 20.8858 23.0684 20.0862 23.3695C19.3226 23.6662 18.4498 23.8691 17.1735 23.928C15.8927 23.9869 15.4847 24 12.2251 24C8.96546 24 8.55746 23.9858 7.27782 23.928C6.00146 23.8702 5.12873 23.6662 4.3651 23.3695C3.56428 23.0683 2.83872 22.5963 2.23892 21.9862C1.62842 21.3869 1.15599 20.6617 0.854552 19.8611C0.558916 19.0975 0.356007 18.2247 0.297098 16.9484C0.238189 15.6665 0.225098 15.2585 0.225098 12C0.225098 8.74036 0.239279 8.33236 0.297098 7.05382C0.354916 5.77527 0.558916 4.90255 0.854552 4.13891C1.15643 3.33827 1.62923 2.61307 2.24001 2.01382C2.83896 1.40346 3.56379 0.931029 4.36401 0.629455C5.12764 0.333818 6.00037 0.130909 7.27673 0.072H7.27782ZM17.0742 2.232C15.8087 2.17418 15.4291 2.16218 12.2251 2.16218C9.0211 2.16218 8.64146 2.17418 7.37601 2.232C6.20546 2.28545 5.57055 2.48073 5.14728 2.64545C4.58764 2.86364 4.18728 3.12218 3.76728 3.54218C3.36915 3.92951 3.06275 4.40103 2.87055 4.92218C2.70582 5.34545 2.51055 5.98036 2.4571 7.15091C2.39928 8.41636 2.38728 8.796 2.38728 12C2.38728 15.204 2.39928 15.5836 2.4571 16.8491C2.51055 18.0196 2.70582 18.6545 2.87055 19.0778C3.06255 19.5982 3.3691 20.0705 3.76728 20.4578C4.15455 20.856 4.62692 21.1625 5.14728 21.3545C5.57055 21.5193 6.20546 21.7145 7.37601 21.768C8.64146 21.8258 9.02001 21.8378 12.2251 21.8378C15.4302 21.8378 15.8087 21.8258 17.0742 21.768C18.2447 21.7145 18.8796 21.5193 19.3029 21.3545C19.8626 21.1364 20.2629 20.8778 20.6829 20.4578C21.0811 20.0705 21.3876 19.5982 21.5796 19.0778C21.7444 18.6545 21.9396 18.0196 21.9931 16.8491C22.0509 15.5836 22.0629 15.204 22.0629 12C22.0629 8.796 22.0509 8.41636 21.9931 7.15091C21.9396 5.98036 21.7444 5.34545 21.5796 4.92218C21.3615 4.36255 21.1029 3.96218 20.6829 3.54218C20.2956 3.14408 19.824 2.83768 19.3029 2.64545C18.8796 2.48073 18.2447 2.28545 17.0742 2.232ZM10.6924 15.6993C11.5484 16.0556 12.5015 16.1037 13.389 15.8353C14.2765 15.567 15.0433 14.9988 15.5585 14.2279C16.0736 13.457 16.3052 12.5311 16.2135 11.6085C16.1219 10.6858 15.7127 9.82361 15.056 9.16909C14.6374 8.7507 14.1311 8.43034 13.5738 8.23107C13.0165 8.0318 12.4219 7.95857 11.8329 8.01667C11.2439 8.07477 10.6751 8.26274 10.1674 8.56705C9.65978 8.87136 9.22591 9.28445 8.89706 9.77656C8.56822 10.2687 8.35258 10.8276 8.26566 11.413C8.17874 11.9985 8.22272 12.596 8.39441 13.1624C8.56611 13.7288 8.86126 14.2501 9.25861 14.6888C9.65596 15.1275 10.1456 15.4726 10.6924 15.6993ZM7.86364 7.63855C8.4364 7.06579 9.11636 6.61146 9.86469 6.30149C10.613 5.99151 11.4151 5.83197 12.2251 5.83197C13.0351 5.83197 13.8372 5.99151 14.5855 6.30148C15.3338 6.61146 16.0138 7.06579 16.5866 7.63855C17.1593 8.2113 17.6136 8.89126 17.9236 9.6396C18.2336 10.3879 18.3931 11.19 18.3931 12C18.3931 12.81 18.2336 13.6121 17.9236 14.3604C17.6136 15.1087 17.1593 15.7887 16.5866 16.3615C15.4298 17.5182 13.861 18.168 12.2251 18.168C10.5892 18.168 9.02037 17.5182 7.86364 16.3615C6.70691 15.2047 6.05707 13.6359 6.05707 12C6.05707 10.3641 6.70691 8.79527 7.86364 7.63855ZM19.7611 6.75055C19.903 6.61666 20.0167 6.45565 20.0952 6.27706C20.1738 6.09847 20.2158 5.90593 20.2186 5.71083C20.2215 5.51574 20.1852 5.32205 20.1118 5.14125C20.0385 4.96044 19.9296 4.79619 19.7916 4.65822C19.6536 4.52026 19.4894 4.41137 19.3086 4.33802C19.1278 4.26467 18.9341 4.22834 18.739 4.23118C18.5439 4.23403 18.3514 4.27599 18.1728 4.35458C17.9942 4.43317 17.8332 4.54679 17.6993 4.68873C17.4389 4.96476 17.2963 5.33141 17.3019 5.71083C17.3074 6.09026 17.4606 6.45259 17.7289 6.72092C17.9972 6.98924 18.3596 7.14243 18.739 7.14796C19.1184 7.15349 19.4851 7.01093 19.7611 6.75055Z" fill="white"/>
</svg>
