<svg width="25" height="24" viewBox="0 0 25 24" fill="none" xmlns="http://www.w3.org/2000/svg">
<path d="M24.2251 2.84684C23.3425 3.32792 22.3944 3.65297 21.3977 3.79989C22.4261 3.0429 23.1955 1.85148 23.5624 0.447947C22.5961 1.15395 21.5386 1.6509 20.4358 1.91719C19.6942 0.943152 18.7119 0.297546 17.6415 0.0806033C16.571 -0.13634 15.4723 0.0875171 14.5158 0.71742C13.5594 1.34732 12.7988 2.34803 12.3521 3.56417C11.9054 4.78031 11.7976 6.14385 12.0454 7.44309C10.0875 7.32216 8.17221 6.69618 6.42373 5.60576C4.67526 4.51535 3.13271 2.98487 1.8962 1.11366C1.4734 2.0108 1.23029 3.05097 1.23029 4.15875C1.22982 5.15601 1.42947 6.13799 1.81151 7.01757C2.19355 7.89715 2.74619 8.64713 3.42038 9.20098C2.6385 9.17037 1.87387 8.91049 1.19013 8.44295V8.52096C1.19005 9.91966 1.58336 11.2753 2.30333 12.3579C3.0233 13.4405 4.02558 14.1833 5.1401 14.4603C4.41477 14.7018 3.65433 14.7374 2.91619 14.5644C3.23064 15.7678 3.84317 16.8203 4.66801 17.5742C5.49286 18.3282 6.48873 18.7461 7.51621 18.7692C5.772 20.4535 3.61791 21.3672 1.40047 21.3632C1.00767 21.3633 0.615207 21.3351 0.225098 21.2786C2.47593 23.0589 5.09606 24.0037 7.772 24C16.8304 24 21.7824 14.7711 21.7824 6.76698C21.7824 6.50694 21.7771 6.24429 21.7676 5.98425C22.7308 5.12738 23.5623 4.0663 24.223 2.85074L24.2251 2.84684Z" fill="white"/>
</svg>
